<?xml version="1.0" encoding="utf-8"?>
<!-- Generator: Adobe Illustrator 21.1.0, SVG Export Plug-In . SVG Version: 6.00 Build 0)  -->
<svg version="1.1" id="Capa_1" xmlns="http://www.w3.org/2000/svg" xmlns:xlink="http://www.w3.org/1999/xlink" x="0px" y="0px"
	 viewBox="0 0 474.2 404.3" style="enable-background:new 0 0 474.2 404.3;" xml:space="preserve">
<g>
	<polygon points="86.8,404.3 153.4,391.6 233.1,275.1 176.6,271.2 	"/>
	<path d="M405.5,180.2c-4.3-0.7-9.5-1.1-15.4-1.1c-0.3,0-0.6,0-0.8,0c-9.6,0.1-21.4,0.8-32.9,4.4c-22.4,6.9-36.3,11.1-49.8,14.3
		l-19.8-1.2l11.2-16.3c10.8-8.6,22.7-17,41.9-30.4c9.9-6.9,17.8-15.7,23.7-23.3c0.2-0.2,0.3-0.4,0.5-0.7c3.6-4.7,6.5-9,8.6-12.8
		c20.4-36,12.6-80.4-19-101.7C332.4-3,305.3-3.3,282,8c-13,6.4-24.8,16.4-33.8,29.6c-23,34-19,77.6,7.9,101.9c1.1,0.7,2,1.7,2.6,2.9
		c1.4,2.9,0.8,6.3-1.2,8.6l0,0L229.3,193L51,181.8L0,226.5l304.7,21.2l0,0c3.1-0.2,6.1,1.4,7.5,4.3c0.6,1.2,0.8,2.5,0.7,3.8
		c2.6,36.1,34.5,66.1,75.5,68.9c15.9,1.1,31.1-2,44.2-8.4c23.3-11.4,39.7-33,41.5-58.7C476.6,219.7,446.5,186.3,405.5,180.2z
		 M266,92.4c-1.8-12.4,1.4-25.4,9-36.7c5.5-8.1,12.8-14.6,21.2-18.6c13.7-6.7,28.5-6.3,39.6,1.2c8.5,5.7,14,15,15.6,26.2
		c1.8,12.4-1.4,25.4-9,36.7c-5.5,8.1-12.8,14.6-21.2,18.7l0,0c-13.7,6.7-28.5,6.3-39.6-1.2C273.1,112.8,267.6,103.5,266,92.4z
		 M246.9,228c-6.3,3.1-13.8,0.5-16.9-5.8c-3.1-6.3-0.4-13.8,5.8-16.9c6.3-3.1,13.8-0.5,16.9,5.8C255.7,217.4,253.2,225,246.9,228z
		 M441.8,255.5c-0.9,13.3-9.7,25.2-23.4,31.9c-8.4,4.1-17.9,5.9-27.7,5.2c-13.5-0.9-25.8-6.4-34.5-15.4c-7.8-8.1-11.7-18.2-11-28.4
		c0.9-13.3,9.7-25.2,23.4-31.9l0,0c8.4-4.1,18-5.9,27.7-5.2c13.5,0.9,25.8,6.4,34.4,15.4C438.6,235.2,442.5,245.3,441.8,255.5z"/>
</g>
</svg>
